<svg xmlns="http://www.w3.org/2000/svg" xmlns:xlink="http://www.w3.org/1999/xlink" contentStyleType="text/css" height="1066px" preserveAspectRatio="none" style="width:649px;height:1066px;background:#F7F8FA;" version="1.1" viewBox="0 0 649 1066" width="649px" zoomAndPan="magnify"><defs/><g><rect fill="#F7F8FA" height="1066" style="stroke:none;stroke-width:1.0;" width="649" x="0" y="0"/><text fill="#333333" font-family="sans-serif" font-size="14" font-weight="bold" lengthAdjust="spacing" textLength="234.9375" x="200.2461" y="23.5352">TPM Software Stack Architecture</text><!--cluster TPM Software APIs--><g id="cluster_TPM Software APIs"><path d="M8.5,43.4883 L144.4277,43.4883 A3.75,3.75 0 0 1 146.9277,45.9883 L153.9277,65.9766 L547.5,65.9766 A2.5,2.5 0 0 1 550,68.4766 L550,616.6483 A2.5,2.5 0 0 1 547.5,619.1483 L8.5,619.1483 A2.5,2.5 0 0 1 6,616.6483 L6,45.9883 A2.5,2.5 0 0 1 8.5,43.4883 " fill="none" style="stroke:#000000;stroke-width:1.5;"/><line style="stroke:#000000;stroke-width:1.5;" x1="6" x2="153.9277" y1="65.9766" y2="65.9766"/><text fill="#000000" font-family="sans-serif" font-size="14" font-weight="bold" lengthAdjust="spacing" textLength="134.9277" x="10" y="59.0234">TPM Software APIs</text></g><!--cluster System API (sys)--><g id="cluster_System API (sys)"><path d="M137.5,86.4883 L257.165,86.4883 A3.75,3.75 0 0 1 259.665,88.9883 L266.665,108.9766 L418.5,108.9766 A2.5,2.5 0 0 1 421,111.4766 L421,237.5383 A2.5,2.5 0 0 1 418.5,240.0383 L137.5,240.0383 A2.5,2.5 0 0 1 135,237.5383 L135,88.9883 A2.5,2.5 0 0 1 137.5,86.4883 " fill="#F5F5DC" style="stroke:#000000;stroke-width:1.5;"/><line style="stroke:#000000;stroke-width:1.5;" x1="135" x2="266.665" y1="108.9766" y2="108.9766"/><text fill="#000000" font-family="sans-serif" font-size="14" font-weight="bold" lengthAdjust="spacing" textLength="118.665" x="139" y="102.0234">System API (sys)</text><text fill="#000000" font-family="sans-serif" font-size="14" font-style="italic" lengthAdjust="spacing" textLength="62.7676" x="250.6162" y="124.5117">&#171;System&#187;</text></g><!--cluster Enhanced SYS (esys)--><g id="cluster_Enhanced SYS (esys)"><path d="M32.5,264.0383 L180.0625,264.0383 A3.75,3.75 0 0 1 182.5625,266.5383 L189.5625,286.5266 L523.5,286.5266 A2.5,2.5 0 0 1 526,289.0266 L526,399.7783 A2.5,2.5 0 0 1 523.5,402.2783 L32.5,402.2783 A2.5,2.5 0 0 1 30,399.7783 L30,266.5383 A2.5,2.5 0 0 1 32.5,264.0383 " fill="#D5E8D4" style="stroke:#000000;stroke-width:1.5;"/><line style="stroke:#000000;stroke-width:1.5;" x1="30" x2="189.5625" y1="286.5266" y2="286.5266"/><text fill="#000000" font-family="sans-serif" font-size="14" font-weight="bold" lengthAdjust="spacing" textLength="146.5625" x="34" y="279.5734">Enhanced SYS (esys)</text><text fill="#000000" font-family="sans-serif" font-size="14" font-style="italic" lengthAdjust="spacing" textLength="79.8369" x="242.0815" y="302.0617">&#171;Enhanced&#187;</text></g><!--cluster Feature API (FAPI)--><g id="cluster_Feature API (FAPI)"><path d="M151.5,426.2783 L281.125,426.2783 A3.75,3.75 0 0 1 283.625,428.7783 L290.625,448.7666 L404.5,448.7666 A2.5,2.5 0 0 1 407,451.2666 L407,592.6483 A2.5,2.5 0 0 1 404.5,595.1483 L151.5,595.1483 A2.5,2.5 0 0 1 149,592.6483 L149,428.7783 A2.5,2.5 0 0 1 151.5,426.2783 " fill="#FFEBB5" style="stroke:#000000;stroke-width:1.5;"/><line style="stroke:#000000;stroke-width:1.5;" x1="149" x2="290.625" y1="448.7666" y2="448.7666"/><text fill="#000000" font-family="sans-serif" font-size="14" font-weight="bold" lengthAdjust="spacing" textLength="128.625" x="153" y="441.8134">Feature API (FAPI)</text><text fill="#000000" font-family="sans-serif" font-size="14" font-style="italic" lengthAdjust="spacing" textLength="65.1602" x="249.4199" y="464.3017">&#171;Feature&#187;</text></g><!--cluster TPM Command Transmission Interface (tss2-tcti)--><g id="cluster_TPM Command Transmission Interface (tss2-tcti)"><path d="M32.5,643.1483 L390.8691,643.1483 A3.75,3.75 0 0 1 393.3691,645.6483 L400.3691,665.6366 L523.5,665.6366 A2.5,2.5 0 0 1 526,668.1366 L526,778.8883 A2.5,2.5 0 0 1 523.5,781.3883 L32.5,781.3883 A2.5,2.5 0 0 1 30,778.8883 L30,645.6483 A2.5,2.5 0 0 1 32.5,643.1483 " fill="#F8CECC" style="stroke:#000000;stroke-width:1.5;"/><line style="stroke:#000000;stroke-width:1.5;" x1="30" x2="400.3691" y1="665.6366" y2="665.6366"/><text fill="#000000" font-family="sans-serif" font-size="14" font-weight="bold" lengthAdjust="spacing" textLength="357.3691" x="34" y="658.6834">TPM Command Transmission Interface (tss2-tcti)</text><text fill="#000000" font-family="sans-serif" font-size="14" font-style="italic" lengthAdjust="spacing" textLength="84.3281" x="239.8359" y="681.1717">&#171;Command&#187;</text></g><!--cluster TPM Access Broker and Resource Manager (TAB/RM)--><g id="cluster_TPM Access Broker and Resource Manager (TAB/RM)"><path d="M83.5,805.3883 L464.1816,805.3883 A3.75,3.75 0 0 1 466.6816,807.8883 L473.6816,827.8766 L473.5,827.8766 A2.5,2.5 0 0 1 476,830.3766 L476,925.8183 A2.5,2.5 0 0 1 473.5,928.3183 L83.5,928.3183 A2.5,2.5 0 0 1 81,925.8183 L81,807.8883 A2.5,2.5 0 0 1 83.5,805.3883 " fill="#D5D5FF" style="stroke:#000000;stroke-width:1.5;"/><line style="stroke:#000000;stroke-width:1.5;" x1="81" x2="473.6816" y1="827.8766" y2="827.8766"/><text fill="#000000" font-family="sans-serif" font-size="14" font-weight="bold" lengthAdjust="spacing" textLength="379.6816" x="85" y="820.9234">TPM Access Broker and Resource Manager (TAB/RM)</text><text fill="#000000" font-family="sans-serif" font-size="14" font-style="italic" lengthAdjust="spacing" textLength="60.7441" x="252.1279" y="843.4117">&#171;Access&#187;</text></g><!--cluster TPM Device Driver--><g id="cluster_TPM Device Driver"><path d="M150.5,952.3183 L284.3906,952.3183 A3.75,3.75 0 0 1 286.8906,954.8183 L293.8906,974.8066 L405.5,974.8066 A2.5,2.5 0 0 1 408,977.3066 L408,1057.4383 A2.5,2.5 0 0 1 405.5,1059.9383 L150.5,1059.9383 A2.5,2.5 0 0 1 148,1057.4383 L148,954.8183 A2.5,2.5 0 0 1 150.5,952.3183 " fill="#FFF2CC" style="stroke:#000000;stroke-width:1.5;"/><line style="stroke:#000000;stroke-width:1.5;" x1="148" x2="293.8906" y1="974.8066" y2="974.8066"/><text fill="#000000" font-family="sans-serif" font-size="14" font-weight="bold" lengthAdjust="spacing" textLength="132.8906" x="152" y="967.8534">TPM Device Driver</text><text fill="#000000" font-family="sans-serif" font-size="14" font-style="italic" lengthAdjust="spacing" textLength="55.7061" x="254.147" y="990.3417">&#171;Driver&#187;</text></g><g id="elem_sys"><path d="M151.31,137.4883 L151.31,224.041 L404.6913,224.041 L404.6913,147.4883 L394.6913,137.4883 L151.31,137.4883 " fill="#FEFFDD" style="stroke:#181818;stroke-width:0.5;"/><path d="M394.6913,137.4883 L394.6913,147.4883 L404.6913,147.4883 L394.6913,137.4883 " fill="#FEFFDD" style="stroke:#181818;stroke-width:1.0;"/><text fill="#333333" font-family="sans-serif" font-size="13" lengthAdjust="spacing" textLength="160.9385" x="157.31" y="155.0566">&#8226; 1:1 to TPM2 commands</text><text fill="#333333" font-family="sans-serif" font-size="13" lengthAdjust="spacing" textLength="232.3813" x="157.31" y="170.3672">&#8226; Command / Response serialization</text><text fill="#333333" font-family="sans-serif" font-size="13" lengthAdjust="spacing" textLength="77.416" x="157.31" y="185.6777">&#8226; No file I/O</text><text fill="#333333" font-family="sans-serif" font-size="13" lengthAdjust="spacing" textLength="191.4961" x="157.31" y="200.9883">&#8226; No cryptographic operations</text><text fill="#333333" font-family="sans-serif" font-size="13" lengthAdjust="spacing" textLength="206.9082" x="157.31" y="216.2988">&#8226; No dynamic memory allocation</text></g><g id="elem_esys"><path d="M46.43,315.0383 L46.43,386.2805 L509.5633,386.2805 L509.5633,325.0383 L499.5633,315.0383 L46.43,315.0383 " fill="#FEFFDD" style="stroke:#181818;stroke-width:0.5;"/><path d="M499.5633,315.0383 L499.5633,325.0383 L509.5633,325.0383 L499.5633,315.0383 " fill="#FEFFDD" style="stroke:#181818;stroke-width:1.0;"/><text fill="#333333" font-family="sans-serif" font-size="13" lengthAdjust="spacing" textLength="442.1333" x="52.43" y="332.6066">&#8226; Automates cryptographic operations for HMAC / encrypted sessions</text><text fill="#333333" font-family="sans-serif" font-size="13" lengthAdjust="spacing" textLength="208.9585" x="52.43" y="347.9172">&#8226; Supports dynamic TCTI loading</text><text fill="#333333" font-family="sans-serif" font-size="13" lengthAdjust="spacing" textLength="189.668" x="52.43" y="363.2277">&#8226; Handles memory allocations</text><text fill="#333333" font-family="sans-serif" font-size="13" lengthAdjust="spacing" textLength="77.416" x="52.43" y="378.5383">&#8226; No file I/O</text></g><g id="elem_fapi"><path d="M165.38,477.2783 L165.38,579.1416 L390.6222,579.1416 L390.6222,487.2783 L380.6222,477.2783 L165.38,477.2783 " fill="#FEFFDD" style="stroke:#181818;stroke-width:0.5;"/><path d="M380.6222,477.2783 L380.6222,487.2783 L390.6222,487.2783 L380.6222,477.2783 " fill="#FEFFDD" style="stroke:#181818;stroke-width:1.0;"/><text fill="#333333" font-family="sans-serif" font-size="13" lengthAdjust="spacing" textLength="148.1987" x="171.38" y="494.8466">&#8226; Specification released</text><text fill="#333333" font-family="sans-serif" font-size="13" lengthAdjust="spacing" textLength="180.9907" x="171.38" y="510.1572">&#8226; Implementation completed</text><text fill="#333333" font-family="sans-serif" font-size="13" lengthAdjust="spacing" textLength="137.4648" x="171.38" y="525.4677">&#8226; No custom typedefs</text><text fill="#333333" font-family="sans-serif" font-size="13" lengthAdjust="spacing" textLength="152.9341" x="171.38" y="540.7783">&#8226; JSON-based interfaces</text><text fill="#333333" font-family="sans-serif" font-size="13" lengthAdjust="spacing" textLength="166.499" x="171.38" y="556.0888">&#8226; Provides Policy language</text><text fill="#333333" font-family="sans-serif" font-size="13" lengthAdjust="spacing" textLength="204.2422" x="171.38" y="571.3994">&#8226; Includes keystore functionality</text></g><g id="elem_tcti"><path d="M45.76,694.1483 L45.76,765.3905 L510.2454,765.3905 L510.2454,704.1483 L500.2454,694.1483 L45.76,694.1483 " fill="#FEFFDD" style="stroke:#181818;stroke-width:0.5;"/><path d="M500.2454,694.1483 L500.2454,704.1483 L510.2454,704.1483 L500.2454,694.1483 " fill="#FEFFDD" style="stroke:#181818;stroke-width:1.0;"/><text fill="#333333" font-family="sans-serif" font-size="13" lengthAdjust="spacing" textLength="285.4731" x="51.76" y="711.7166">&#8226; Abstracts command / response mechanism</text><text fill="#333333" font-family="sans-serif" font-size="13" lengthAdjust="spacing" textLength="305.8237" x="51.76" y="727.0272">&#8226; Decouples APIs from command transport / IPC</text><text fill="#333333" font-family="sans-serif" font-size="13" lengthAdjust="spacing" textLength="443.4854" x="51.76" y="742.3377">&#8226; No cryptographic operations, dynamic memory allocation, or file I/O</text><text fill="#333333" font-family="sans-serif" font-size="13" lengthAdjust="spacing" textLength="268.9883" x="51.76" y="757.6483">&#8226; Supports dynamic loading via dlopen API</text></g><g id="elem_tab_rm"><path d="M171.01,856.3883 L171.01,912.3199 L384.9978,912.3199 L384.9978,866.3883 L374.9978,856.3883 L171.01,856.3883 " fill="#FEFFDD" style="stroke:#181818;stroke-width:0.5;"/><path d="M374.9978,856.3883 L374.9978,866.3883 L384.9978,866.3883 L374.9978,856.3883 " fill="#FEFFDD" style="stroke:#181818;stroke-width:1.0;"/><text fill="#333333" font-family="sans-serif" font-size="13" lengthAdjust="spacing" textLength="192.9878" x="177.01" y="873.9566">&#8226; Abstracts storage limitations</text><text fill="#333333" font-family="sans-serif" font-size="13" lengthAdjust="spacing" textLength="109.8589" x="177.01" y="889.2672">&#8226; Manages power</text><text fill="#333333" font-family="sans-serif" font-size="13" lengthAdjust="spacing" textLength="191.4961" x="177.01" y="904.5777">&#8226; No cryptographic operations</text></g><g id="elem_driver"><path d="M163.55,1003.3183 L163.55,1043.9394 L392.4484,1043.9394 L392.4484,1013.3183 L382.4484,1003.3183 L163.55,1003.3183 " fill="#FEFFDD" style="stroke:#181818;stroke-width:0.5;"/><path d="M382.4484,1003.3183 L382.4484,1013.3183 L392.4484,1013.3183 L382.4484,1003.3183 " fill="#FEFFDD" style="stroke:#181818;stroke-width:1.0;"/><text fill="#333333" font-family="sans-serif" font-size="13" lengthAdjust="spacing" textLength="207.8984" x="169.55" y="1020.8866">&#8226; Device Interface (CRB / polling)</text><text fill="#333333" font-family="sans-serif" font-size="13" lengthAdjust="spacing" textLength="200.5225" x="169.55" y="1036.1972">&#8226; Handles pre-boot log handoff</text></g><!--entity App--><g id="elem_App"><ellipse cx="604.0048" cy="151.0183" fill="#F1F1F1" rx="8" ry="8" style="stroke:#181818;stroke-width:0.5;"/><path d="M604.0048,159.0183 L604.0048,186.0183 M591.0048,167.0183 L617.0048,167.0183 M604.0048,186.0183 L591.0048,201.0183 M604.0048,186.0183 L617.0048,201.0183 " fill="none" style="stroke:#181818;stroke-width:0.5;"/><text fill="#333333" font-family="sans-serif" font-size="14" lengthAdjust="spacing" textLength="76.8496" x="565.58" y="216.0534">Application</text></g><!--link sys to esys--><g id="link_sys_esys"><path d="M235.77,224.5183 C235.77,252.5383 235.77,282.4483 235.77,308.7783 " fill="none" id="sys-to-esys" style="stroke:#333333;stroke-width:1.0;"/><polygon fill="#333333" points="235.77,314.7783,239.77,305.7783,235.77,309.7783,231.77,305.7783,235.77,314.7783" style="stroke:#333333;stroke-width:1.0;"/><text fill="#333333" font-family="sans-serif" font-size="12" lengthAdjust="spacing" textLength="46.1543" x="188.77" y="266.2498">Extends</text></g><!--link sys to esys--><g id="link_sys_esys"><path d="M320.23,224.5183 C320.23,252.5383 320.23,282.4483 320.23,308.7783 " fill="none" id="sys-to-esys-1" style="stroke:#333333;stroke-width:1.0;"/><polygon fill="#333333" points="320.23,314.7783,324.23,305.7783,320.23,309.7783,316.23,305.7783,320.23,314.7783" style="stroke:#333333;stroke-width:1.0;"/><text fill="#333333" font-family="sans-serif" font-size="12" lengthAdjust="spacing" textLength="122.502" x="321.23" y="266.2498">Extends functionality</text></g><!--link esys to fapi--><g id="link_esys_fapi"><path d="M315.54,386.5883 C315.54,412.5283 315.54,441.9383 315.54,470.8583 " fill="none" id="esys-to-fapi" style="stroke:#333333;stroke-width:1.0;"/><polygon fill="#333333" points="315.54,476.8583,319.54,467.8583,315.54,471.8583,311.54,467.8583,315.54,476.8583" style="stroke:#333333;stroke-width:1.0;"/><text fill="#333333" font-family="sans-serif" font-size="12" lengthAdjust="spacing" textLength="53.5723" x="316.54" y="428.3198">Builds on</text></g><!--link esys to fapi--><g id="link_esys_fapi"><path d="M240.46,386.5883 C240.46,412.5283 240.46,441.9383 240.46,470.8583 " fill="none" id="esys-to-fapi-1" style="stroke:#333333;stroke-width:1.0;"/><polygon fill="#333333" points="240.46,476.8583,244.46,467.8583,240.46,471.8583,236.46,467.8583,240.46,476.8583" style="stroke:#333333;stroke-width:1.0;"/><text fill="#333333" font-family="sans-serif" font-size="12" lengthAdjust="spacing" textLength="105.5918" x="134.46" y="428.3198">Enhances features</text></g><!--link fapi to tcti--><g id="link_fapi_tcti"><path d="M240.46,579.5983 C240.46,615.2783 240.46,655.9483 240.46,687.7283 " fill="none" id="fapi-to-tcti" style="stroke:#333333;stroke-width:1.0;"/><polygon fill="#333333" points="240.46,693.7283,244.46,684.7283,240.46,688.7283,236.46,684.7283,240.46,693.7283" style="stroke:#333333;stroke-width:1.0;"/><text fill="#333333" font-family="sans-serif" font-size="12" lengthAdjust="spacing" textLength="85.4238" x="154.46" y="649.2598">Interfaces with</text></g><!--link fapi to tcti--><g id="link_fapi_tcti"><path d="M315.54,579.5983 C315.54,615.2783 315.54,655.9483 315.54,687.7283 " fill="none" id="fapi-to-tcti-1" style="stroke:#333333;stroke-width:1.0;"/><polygon fill="#333333" points="315.54,693.7283,319.54,684.7283,315.54,688.7283,311.54,684.7283,315.54,693.7283" style="stroke:#333333;stroke-width:1.0;"/><text fill="#333333" font-family="sans-serif" font-size="12" lengthAdjust="spacing" textLength="103.6172" x="211.54" y="633.2598">Provides interface</text></g><!--link tcti to tab_rm--><g id="link_tcti_tab_rm"><path d="M242.34,765.6183 C242.34,793.0883 242.34,824.4783 242.34,849.9083 " fill="none" id="tcti-to-tab_rm" style="stroke:#333333;stroke-width:1.0;"/><polygon fill="#333333" points="242.34,855.9083,246.34,846.9083,242.34,850.9083,238.34,846.9083,242.34,855.9083" style="stroke:#333333;stroke-width:1.0;"/><text fill="#333333" font-family="sans-serif" font-size="12" lengthAdjust="spacing" textLength="83.0098" x="158.34" y="807.3598">Abstracts APIs</text></g><!--link tcti to tab_rm--><g id="link_tcti_tab_rm"><path d="M313.66,765.6183 C313.66,793.0883 313.66,824.4783 313.66,849.9083 " fill="none" id="tcti-to-tab_rm-1" style="stroke:#333333;stroke-width:1.0;"/><polygon fill="#333333" points="313.66,855.9083,317.66,846.9083,313.66,850.9083,309.66,846.9083,313.66,855.9083" style="stroke:#333333;stroke-width:1.0;"/><text fill="#333333" font-family="sans-serif" font-size="12" lengthAdjust="spacing" textLength="173.7832" x="314.66" y="807.3598">Abstracts command transport</text></g><!--link tab_rm to driver--><g id="link_tab_rm_driver"><path d="M313.66,912.5383 C313.66,939.3983 313.66,973.2083 313.66,997.1683 " fill="none" id="tab_rm-to-driver" style="stroke:#333333;stroke-width:1.0;"/><polygon fill="#333333" points="313.66,1003.1683,317.66,994.1683,313.66,998.1683,309.66,994.1683,313.66,1003.1683" style="stroke:#333333;stroke-width:1.0;"/><text fill="#333333" font-family="sans-serif" font-size="12" lengthAdjust="spacing" textLength="176.4961" x="314.66" y="954.4498">Manages resources and power</text></g><!--link tab_rm to driver--><g id="link_tab_rm_driver"><path d="M242.34,912.5383 C242.34,939.3983 242.34,973.2083 242.34,997.1683 " fill="none" id="tab_rm-to-driver-1" style="stroke:#333333;stroke-width:1.0;"/><polygon fill="#333333" points="242.34,1003.1683,246.34,994.1683,242.34,998.1683,238.34,994.1683,242.34,1003.1683" style="stroke:#333333;stroke-width:1.0;"/><text fill="#333333" font-family="sans-serif" font-size="12" lengthAdjust="spacing" textLength="90.0234" x="151.34" y="954.4498">Controls device</text></g><!--link App to sys--><g id="link_App_sys"><path d="M565.32,180.7583 C525.77,180.7583 468.18,180.7583 410.86,180.7583 " fill="none" id="App-to-sys" style="stroke:#333333;stroke-width:1.0;"/><polygon fill="#333333" points="404.86,180.7583,413.86,184.7583,409.86,180.7583,413.86,176.7583,404.86,180.7583" style="stroke:#333333;stroke-width:1.0;"/><text fill="#333333" font-family="sans-serif" font-size="12" lengthAdjust="spacing" textLength="111.7559" x="429.59" y="193.3598">Uses Developer API</text></g><!--SRC=[dLRTQkj64BxNKmpkHNBWc92qfk5m2DYonN5fpZ6HUr4ebBKqifQiTiNkAgvJ0dsMFbgVfBExaYp73YdDHK0xtyxFDz_Csd8h4DQhUqXLONTC8wIMPOymrLd9BMQsqHYPHovhfba56x9jjMfa7YkXD7oN_9ZS9jC18iU2DS8cIjeMyht_6q04bsZtDOBIjbG3WwPuJ6ufepyZeB-PqZdgOpVk_DHvTvhoPuJh6_-zOddEvHQk9z7B80ZJMktQ0F_7zT1NJNImRKXtTapDvy_ftbYixkw8f4aocSVdC0jPCfbXxb3poU9s_iCvL8BCzS6xIXQpsUGSA5PLnQJtbDp6Y_Xil6cMeJ4XsdoI9ESmSysVK8TWoKtmCsZ4Hj25QCXKE7c98fPP-XnDwrhmZ5ckv0YO0VgEeWjOgnf-PdlKC3vMt7IrD1THn-Nen3PgkzKZ0hFE1fTcRpwCOC1sm098PGdwprz_m_MdQx3AnRo1BB1aVfFEqd86L_20fbRI81ZKd0d-xDCFgAyA2awYN5vzwmyolQ-jscfMbpm3LQFs5qmFoFUILMIgi59w3qm8DQ24ilPf4cb7bNLwWFJN52wnAsuWazFoferL5RDetamA2chBb_jfJ8MYz2WAOKW9XvJJfgvf7asV-3fUBq4evcOeGBuGLOB2d9HaJdZoHU9RLRPw3WrCwBylyg3oqnhJ6ZDUjAAYFI6G6Sn3s6LL2wnGsc2a3jEtxQokLuqXXi2j7DfERR8_fT- -ZZVE2t1fKHUC9YEOLbezyPmANIdIyHu4xQI64c_3oKmqplg893b5PHIDp5neaetT-yeBLlEsyXSd_HGpHJ8Rgh-JtbepQIhkMq6-sqpWrJoyWxwqnjoCBMNXcJoi0iVaG2aROpKDgUd6WFIWE-5Nc978kAb2cNDAkQbTkzq8Gg69mUwMTLaujT3zvIf-ToW-lZqD7-aHU3LT9qfiHGXFd44koArqENcYNSc1udN9zJ73OTV1JAj7EdDvqv2hHXDVzqmIjVero__XnkLwEhjwkFSqzylqBPQTF9npmIjkXvCIl1cerGxrk_I5IjdcTrs5McVAEa4FYvtZ4wSqm-v-NTUHqMNUh_ZZp5lSG5VnmunwN2j1R_Rsm_4Qg3MEDqfPwiyMI3gvAWgVQkwzXrJdMD1h3uuHlYqjaC7I60lIafIOXVMqGRj33AEh94soePa4MoAKd4YWdo9xAecs2OnpjPFZExzQu1Ci_h18opp2eSqD7zbc3HUv0IKZVz1PdMB8sjTeOCTj6VdZ7kEv9jIXbMu8elQyWuKw2TQrKxTgCLuxlhddE2YLvi_qUX8BxF1KXZN4F2K-9q-0Qv_nlyWk8df7OQoT2meU2FY5bhXh6xgnq2xBG5E7EkRfU5Erh7NGbhRsgI5iMCUcfQ-3jVprEx9VdYs5FUwKmvFrqHFQNUePZOaUhGHfoKio-XS0]--></g></svg>